<svg id="Ebene_1" data-name="Ebene 1" xmlns="http://www.w3.org/2000/svg" xmlns:xlink="http://www.w3.org/1999/xlink" viewBox="0 0 250 250"><defs><style>.cls-1{fill:none;}.cls-2{fill:#015;}.cls-3{fill:#fff;}.cls-4{fill:url(#Unbenannter_Verlauf_8);}.cls-5{fill:url(#Unbenannter_Verlauf_2);}.cls-6{fill:url(#Unbenannter_Verlauf_3);}.cls-7{fill:url(#Unbenannter_Verlauf_4);}.cls-8{fill:url(#Unbenannter_Verlauf_5);}.cls-9{fill:url(#Unbenannter_Verlauf_6);}.cls-10{fill:url(#Unbenannter_Verlauf_7);}</style><linearGradient id="Unbenannter_Verlauf_8" x1="46.67" y1="1050.9" x2="41.97" y2="1032.97" gradientTransform="translate(0 -903)" gradientUnits="userSpaceOnUse"><stop offset="0" stop-color="#350706"/><stop offset="0.36" stop-color="#3f0808"/><stop offset="0.98" stop-color="#5b0c0e"/><stop offset="1" stop-color="#5c0c0e"/></linearGradient><radialGradient id="Unbenannter_Verlauf_2" cx="47.23" cy="1014.77" r="10.05" gradientTransform="translate(0 -903)" gradientUnits="userSpaceOnUse"><stop offset="0" stop-color="#003789"/><stop offset="1" stop-color="#5fc7ff" stop-opacity="0.98"/></radialGradient><radialGradient id="Unbenannter_Verlauf_3" cx="53.97" cy="1013.41" r="12" gradientTransform="translate(0 -903)" gradientUnits="userSpaceOnUse"><stop offset="0" stop-color="#ec0a1c"/><stop offset="1" stop-color="#bb0e15"/></radialGradient><radialGradient id="Unbenannter_Verlauf_4" cx="65.05" cy="1030.5" r="20.61" gradientTransform="translate(0 -903)" gradientUnits="userSpaceOnUse"><stop offset="0" stop-color="#5bc0ff" stop-opacity="0.98"/><stop offset="1" stop-color="#003789"/></radialGradient><radialGradient id="Unbenannter_Verlauf_5" cx="38.82" cy="1038.76" r="13.47" gradientTransform="translate(0 -903)" gradientUnits="userSpaceOnUse"><stop offset="0" stop-color="#42b4f3" stop-opacity="0.98"/><stop offset="1" stop-color="#003a80"/></radialGradient><radialGradient id="Unbenannter_Verlauf_6" cx="56.1" cy="1022.65" r="23.79" gradientTransform="translate(0 -903)" gradientUnits="userSpaceOnUse"><stop offset="0" stop-color="#5fc7ff"/><stop offset="1" stop-color="#003785" stop-opacity="0.98"/></radialGradient><radialGradient id="Unbenannter_Verlauf_7" cx="35.53" cy="1018.06" r="27.5" gradientTransform="translate(0 -903)" gradientUnits="userSpaceOnUse"><stop offset="0" stop-color="#ec0a1c"/><stop offset="1" stop-color="#9e0d18"/></radialGradient></defs><rect class="cls-1" x="12" y="83.71" width="225" height="87.57"/><path class="cls-2" d="M153.82,122.36a12.07,12.07,0,0,0-3.8-.77c-1.45,0-2.58.38-2.58,1.69,0,3.11,8,1.2,8,7.6,0,4.33-3.52,6-7.48,6a18.36,18.36,0,0,1-5.31-.79l.32-3.79a18.23,18.23,0,0,0,4.8.88c1.54,0,2.79-.5,2.79-1.82,0-3.33-8-1.2-8-7.57,0-4,3.36-5.61,7.06-5.61a15.23,15.23,0,0,1,5,.78Zm-14.63,0a12.36,12.36,0,0,0-3.79-.77c-1.45,0-2.61.38-2.61,1.69,0,3.11,8,1.2,8,7.6,0,4.33-3.54,6-7.47,6a19.12,19.12,0,0,1-5.37-.79l.35-3.79a18.45,18.45,0,0,0,4.83.88c1.49,0,2.76-.5,2.76-1.82,0-3.33-8-1.2-8-7.57,0-4,3.39-5.61,7-5.61a16,16,0,0,1,5.09.78Zm73.93-4.23c3.49,0,5.52,1.88,5.52,6v12.36H214V125.08c0-1.85-.53-3.08-2.49-3.08s-3.7,1.73-3.7,4.83v9.67h-4.55V125.08c0-1.73-.57-3.08-2.55-3.08s-3.66,1.92-3.66,5v9.47h-4.71v-18c3.07-.38,4.23.87,4.36,2.88a6.2,6.2,0,0,1,5.62-3.26c3.23,0,4.51,1.79,5,3.49a6.16,6.16,0,0,1,5.84-3.49Zm-94.61.38a127.25,127.25,0,0,1-5.21,18h-4.89l-3.45-12h-.06l-3.46,12H96.58c-1.57-4.18-4.4-12.87-5.21-18H96l3,12.36h.06l3.64-12.36h4.61l3.55,12.27H111L114,118.51Zm-29.9,3.85a12.07,12.07,0,0,0-3.8-.77c-1.44,0-2.54.38-2.54,1.69,0,3.11,8,1.2,8,7.6,0,4.33-3.51,6-7.47,6a18.29,18.29,0,0,1-5.3-.79l.28-3.79a18.45,18.45,0,0,0,4.83.88c1.53,0,2.79-.5,2.79-1.82,0-3.33-8-1.2-8-7.57,0-4,3.35-5.61,7-5.61a15.6,15.6,0,0,1,5,.78Zm92.25,14.5c-5.11,0-8.69-2.79-8.69-9.06,0-5.62,3.77-9.67,9.23-9.67,5.08,0,8.37,2.86,8.37,9,0,5.87-3.57,9.76-8.91,9.76Zm.19-14.77c-2.07,0-4,1.53-4,5.48,0,3.42,1.28,5.33,4,5.33,2.3,0,4-1.85,4-5.48s-1.25-5.33-4-5.33Zm-60.43,14.4h4.61v-18c-2.17-.22-4.61.37-4.61,3.76Zm2.52-20.24a2.91,2.91,0,0,0,3-2.79v-.07a2.91,2.91,0,1,0-3,2.86Zm43.05,20.55c-5.34,0-8.82-2.67-8.82-9,0-5.41,3-9.58,9.54-9.58a13.37,13.37,0,0,1,4.39.75l-1,3.77a9.57,9.57,0,0,0-3.26-.66c-3.36,0-4.74,2.2-4.74,5.49s1.25,5.33,4.55,5.33a9.33,9.33,0,0,0,3.64-.78l.53,3.7a10.22,10.22,0,0,1-4.82,1Z"/><path class="cls-3" d="M47.34,115.14h0a3.17,3.17,0,0,0-2.59,2,15.33,15.33,0,0,1-1.38,3.06c-1.39,1.92-5,1.47-5.56,4.1C37,128.14,42,129,43.5,131.64c1.09,2,.56,5.06,2.62,6.45a3.65,3.65,0,0,0,1,.46l.19,0Z"/><path class="cls-4" d="M47.34,138.6l-.19,0a3.53,3.53,0,0,1-1-.46c-2.06-1.39-1.53-4.48-2.62-6.45A5.52,5.52,0,0,0,42,130L42,130c-.24.24-.59.62-1.16,1.19a13.16,13.16,0,0,0-1.25,1.44h0a17.68,17.68,0,0,1,3.28,4.58c1,2.24,1.27,4.68,2,7A8.89,8.89,0,0,0,46,146.59a3.13,3.13,0,0,0,1.33,1.11v-9.1Z"/><path class="cls-5" d="M44.89,110.22l.75.79c.25.26.59.61,1,1s.5.5.73.69V102.12a3,3,0,0,0-.74-.05,6.77,6.77,0,0,0-1.84.38,4.85,4.85,0,0,0-1.45.82,2.74,2.74,0,0,0-.95,1.56,4,4,0,0,0,.41,2.49,9.78,9.78,0,0,0,.89,1.49s.25.31.39.46S44.6,109.89,44.89,110.22Z"/><path class="cls-6" d="M61.71,118.38a13.47,13.47,0,0,0-1.19-4.62,11.83,11.83,0,0,0-2.36-3.38l-.29-.28a12.46,12.46,0,0,0-1.78-1.38,12.21,12.21,0,0,0-2-1,11.6,11.6,0,0,0-3.52-.88,6.43,6.43,0,0,0-3.27.5v5.33h0L49,114.17c.25.23.5.44.75.66l.74.63.78.65,1.6,1.31.22.18L56,120l.06,0c.39.31,2.39,1.92,3.37,2.76s1.72,1.5,1.79,1.57a23.59,23.59,0,0,0,.43-2.65A18.19,18.19,0,0,0,61.71,118.38Z"/><path class="cls-7" d="M68,133.84a13.17,13.17,0,0,0-1.63-3.7,25.38,25.38,0,0,0-3.63-4.38c-.49-.5-1-1-1.49-1.42-.05.22-.18.75-.42,1.57-.13.42-.37,1.12-.46,1.38s-.39,1.07-.57,1.5c-.24.62-.61,1.49-.95,2.22-.49,1.05-.77,1.54-1.31,2.54-.24.44-.45.87-.76,1.4-.1.18-.21.37-.34.57l-.75,1.22c-.12.2-.26.42-.35.54-.75,1.16-.81,1.21-.93,1.38-.28.38.1-.14-.43.6L52.72,141c-.19.25-.81,1.07-1.5,1.92s-1.39,1.78-1.71,2.16l-2.2,2.59v5.21c.93-.08,1.9-.21,2.89-.39a30.8,30.8,0,0,0,3.76-.93,30.36,30.36,0,0,0,3.18-1.18A27.76,27.76,0,0,0,59.86,149a21.44,21.44,0,0,0,3.2-2.25A16.23,16.23,0,0,0,66,143.53a13,13,0,0,0,1.89-4.16,13.38,13.38,0,0,0,.38-2.59A10.38,10.38,0,0,0,68,133.84Z"/><path class="cls-8" d="M46,146.62a8.9,8.9,0,0,1-1.16-2.43c-.77-2.33-1-4.76-2-7a17.9,17.9,0,0,0-3.28-4.59,12.4,12.4,0,0,0-1,1.43,8.27,8.27,0,0,0-.65,1.42,5.06,5.06,0,0,0-.22.85,5.51,5.51,0,0,0-.1.9,5.61,5.61,0,0,0,.07,1.16,6.21,6.21,0,0,0,.32,1.25,8.1,8.1,0,0,0,.7,1.49l.13.21a11.74,11.74,0,0,0,2.12,2.54,15.26,15.26,0,0,0,1.46,1.2,12.09,12.09,0,0,0,1.05.71c.5.3,1,.57,1.47.83.68.35,1.75.84,2.43,1.11h0A3,3,0,0,1,46,146.62Z"/><path class="cls-9" d="M61.23,124.33c-.07-.06-.87-.79-1.79-1.57s-3-2.45-3.37-2.76L56,120l-2.9-2.35c-.11-.08-.18-.15-.22-.18l-1.6-1.31-.78-.64-.73-.62c-.27-.22-.5-.43-.76-.66s-1.08-1-1.68-1.53h0c-.23-.21-.5-.49-.73-.69s-.64-.63-1-1-.53-.54-.75-.78l-.86-1-.3-.35h0c.17.28.53.8.72,1.06l.9,1.33c.34.5.91,1.43,1.23,2,0,.06.07.13.11.2a7.92,7.92,0,0,1,.49,1.12,2.1,2.1,0,0,1,.13.55h0v23.46h0v9.13l2.2-2.6c.31-.37,1-1.28,1.71-2.15s1.28-1.67,1.49-1.93L54,139.26c.53-.74.15-.23.43-.61a16.32,16.32,0,0,0,.94-1.37l.35-.54c.06-.12.69-1.14.74-1.23s.24-.39.35-.57c.3-.53.5-.95.76-1.39.54-1,.8-1.5,1.29-2.54.34-.73.72-1.6,1-2.22.17-.43.43-1.12.56-1.49s.33-1,.46-1.39c.25-.82.37-1.35.42-1.57h0Z"/><path class="cls-10" d="M39.53,132.6a15.74,15.74,0,0,1,1.25-1.44L42,130c-2-1.57-4.76-2.74-4.14-5.67.55-2.63,4.17-2.18,5.56-4.1a15.33,15.33,0,0,0,1.38-3.06,3.17,3.17,0,0,1,2.59-2h0a2.17,2.17,0,0,0-.13-.56,7.81,7.81,0,0,0-.49-1.11,1,1,0,0,0-.11-.21c-.32-.53-.89-1.44-1.23-2-.5-.74-.39-.59-.9-1.32-.19-.27-.55-.79-.72-1.07h0a.44.44,0,0,1-.09-.11,9.41,9.41,0,0,1-.89-1.5l-.13-.31L41,108.19c-1.28.94-2.56,1.87-3.8,2.85-.82.64-1.62,1.31-2.39,2a22.13,22.13,0,0,0-2.13,2.2,9.16,9.16,0,0,0-2.34,5.08,7.37,7.37,0,0,0,0,.94,6.71,6.71,0,0,0,.13,1A7.87,7.87,0,0,0,32,125.43a17.89,17.89,0,0,0,2.75,2.82l.49.44c1.18,1,2.37,2,3.49,3.09.32.3.63.62.93.93l-.09-.1Z"/></svg>